<svg xmlns="http://www.w3.org/2000/svg" viewBox="0 0 108 108" width="512" height="512"><defs><clipPath id="r"><rect width="108" height="108" rx="30"/></clipPath><radialGradient id="g1" gradientUnits="userSpaceOnUse" cx="26" cy="12" r="110"><stop offset="0" stop-color="#FFFFFF" stop-opacity="1.000"/><stop offset="1" stop-color="#F1EBFF" stop-opacity="1.000"/></radialGradient><linearGradient id="g2" gradientUnits="userSpaceOnUse" x1="20" y1="18" x2="88" y2="84"><stop offset="0.0" stop-color="#FFB05C" stop-opacity="1.000"/><stop offset="0.42" stop-color="#F2609F" stop-opacity="1.000"/><stop offset="1.0" stop-color="#6F5BF4" stop-opacity="1.000"/></linearGradient><radialGradient id="g3" gradientUnits="userSpaceOnUse" cx="40" cy="28" r="46"><stop offset="0" stop-color="#FFFFFF" stop-opacity="0.400"/><stop offset="1" stop-color="#FFFFFF" stop-opacity="0.000"/></radialGradient><linearGradient id="g4" gradientUnits="userSpaceOnUse" x1="40" y1="40" x2="86" y2="84"><stop offset="0" stop-color="#302070" stop-opacity="0.000"/><stop offset="1" stop-color="#302070" stop-opacity="0.200"/></linearGradient></defs><g clip-path="url(#r)"><path d="M0,0h108v108h-108z" fill="url(#g1)" fill-opacity="1.000"/><g transform="translate(54,53) scale(1.0) translate(-54,-53)"><path d="M29,85.6a25,3.8 0 1 1 50,0a25,3.8 0 1 1 -50,0" fill="#5B3FA0" fill-opacity="0.039"/><path d="M34,85.2a20,2.9 0 1 1 40,0a20,2.9 0 1 1 -40,0" fill="#5B3FA0" fill-opacity="0.059"/><path d="M40,84.9a14,2.0 0 1 1 28,0a14,2.0 0 1 1 -28,0" fill="#5B3FA0" fill-opacity="0.086"/><path d="M54,19Q56.6,19 58.7,21L82,43Q85,46 85,50V68Q85,82 71,82H37Q23,82 23,68V50Q23,46 26,43L49.3,21Q51.4,19 54,19Z" fill="url(#g2)" fill-opacity="1.000"/><path d="M54,19Q56.6,19 58.7,21L82,43Q85,46 85,50V68Q85,82 71,82H37Q23,82 23,68V50Q23,46 26,43L49.3,21Q51.4,19 54,19Z" fill="url(#g3)" fill-opacity="1.000"/><path d="M54,19Q56.6,19 58.7,21L82,43Q85,46 85,50V68Q85,82 71,82H37Q23,82 23,68V50Q23,46 26,43L49.3,21Q51.4,19 54,19Z" fill="url(#g4)" fill-opacity="1.000"/><path transform="translate(0,1.6)" d="M40.5,63L49.5,72L68.5,53" fill="#000000" fill-opacity="0.000" stroke="#401060" stroke-opacity="0.149" stroke-width="9.399999999999999" stroke-linejoin="round" stroke-linecap="round"/><path d="M40.5,63L49.5,72L68.5,53" fill="#000000" fill-opacity="0.000" stroke="#FFFFFF" stroke-opacity="1.000" stroke-width="8.2" stroke-linejoin="round" stroke-linecap="round"/></g></g></svg>
